<svg t="1644910300469" class="icon" viewBox="0 0 1024 1024" version="1.1" xmlns="http://www.w3.org/2000/svg" p-id="1962" width="200" height="200"><path d="M511.523721 1024A511.76186 511.76186 0 1 1 1024 511.523721 512.23814 512.23814 0 0 1 511.523721 1024z m0-974.466977a462.943256 462.943256 0 1 0 462.943256 461.990698A463.419535 463.419535 0 0 0 511.523721 48.818605z" p-id="1963" fill="#FC5659"></path><path d="M511.523721 877.067907A365.782326 365.782326 0 0 1 146.217674 511.523721h47.627907a316.963721 316.963721 0 0 0 316.725582 316.725581zM877.067907 511.523721h-47.627907a316.963721 316.963721 0 0 0-316.725581-316.725581v-47.627907a365.782326 365.782326 0 0 1 364.353488 364.353488z" p-id="1964" fill="#FC5659"></path></svg>