<svg t="1646189820447" class="icon" viewBox="0 0 1024 1024" version="1.1" xmlns="http://www.w3.org/2000/svg" p-id="11998" width="200" height="200"><path d="M715.161184 376.996767c37.699677 345.580369-25.133118 464.962679-75.399354 521.512194-10.467944 12.566559-37.699677 36.443021-62.832794 31.416397-31.416397-6.283279-81.682633 25.133118-119.38231 25.133118s-56.549515-6.283279-106.81575-25.133118c-40.212988-15.079871-69.116074-12.566559-114.167188-31.416397-45.051114-18.849838-113.09903-175.931824-75.399353-521.512194C191.324176 100.532471 352.829591 18.849838 438.696888 12.566559c85.879863 6.283279 246.304554 87.965912 276.464296 364.430208z" fill="#5DAE11" p-id="11999"></path><path d="M444.980168 13.144621C357.755682 22.871137 203.174441 107.142481 173.730994 376.996767c-37.699677 345.580369 30.34824 502.662356 75.399353 521.512194 24.416824 10.216612 44.083489 14.149945 63.385723 18.020445 16.311393 3.267305 32.358889 6.484344 50.781465 13.395952 46.358036 17.379551 65.999567 24.077527 98.333323 25.007452-1.382321 0.087966-2.73951 0.125666-4.084132 0.125666-37.699677 0-56.549515-6.283279-106.81575-25.133118-18.422575-6.911607-34.470071-10.128646-50.781465-13.395952-19.302234-3.8705-38.968899-7.803833-63.385723-18.020445-45.051114-18.849838-113.09903-175.931824-75.399353-521.512194C191.324176 100.532471 352.829591 18.849838 438.696888 12.566559c2.060916 0.150799 4.146964 0.339297 6.28328 0.578062zM590.412954 930.088723a53.118844 53.118844 0 0 0-16.525025-0.653461c1.030458 0.125666 2.048349 0.289031 3.041107 0.490096 4.461128 0.892226 8.997656 0.879659 13.483918 0.163365z" fill="#4F990A" p-id="12000"></path><path d="M294.721823 710.010577c14.665174 87.965912 44.523318 138.232148 37.699677 213.631501 0.527795 18.849838-61.78977 37.699677-112.056006-43.982956s10.593609-219.914781 10.593609-301.597413c0-62.983593-9.563151-106.815751-30.486472-131.948868 23.160168 6.283279 35.487962 77.284337 37.699677 62.832794 2.136315-14.011713 11.636634-50.266236 11.636633-62.832794S238.172308 382.526053 225.605749 370.713487c12.566559 0 23.725663 31.416397 31.416397 50.266236 4.197231-18.849838 27.332266-126.821712 45.025981-144.515427-12.566559 75.399353 4.31033 144.515427-14.539509 182.215103 6.283279-12.566559 12.566559-6.283279 33.389347-37.699676-8.256229 31.416397-27.106068 43.982956-27.106067 69.116074 18.849838-12.566559 25.133118-18.849838 43.982956-31.416398C306.358456 490.095797 313.571661 515.228914 288.438544 546.645312c10.241745-3.971033 24.203192 0 43.05303-18.849839-6.283279 25.133118-49.33631 31.416397-49.33631 50.266236 1.332055 24.479657 4.976357 86.407659 12.566559 131.948868z" fill="#4F990A" p-id="12001"></path><path d="M289.481568 716.293857c14.652608 87.965912 43.982956 125.665589 37.159315 201.064942 0.527795 18.849838-68.575712 43.982956-118.841948-37.699677-50.266236-81.682633 10.593609-219.914781 10.593609-301.597413 0-62.983593-4.209797-113.09903-25.133118-138.232148 23.160168 6.283279 35.487962 77.284337 37.699677 62.832795 2.136315-14.011713 6.283279-43.982956 6.28328-56.549515s-6.283279-69.870067-18.849839-81.682633c12.566559 0 19.528433 31.416397 27.2066 50.266235 4.209797-18.849838 26.188709-120.538433 43.882424-138.232147-12.566559 75.399353 4.31033 144.515427-14.539509 182.215103 6.283279-12.566559 12.566559-6.283279 33.389347-37.699676-8.256229 31.416397-27.106068 43.982956-27.106067 69.116074 18.849838-12.566559 25.133118-18.849838 43.982956-31.416398-31.416397 31.416397-18.849838 56.549515-43.982956 87.965913 10.241745-3.971033 18.849838 0 37.699676-18.849839-6.283279 25.133118-42.010006 31.416397-42.010006 50.266236l0.0377 0.879659c1.382321 25.183384 5.026624 92.339075 12.528859 137.352489z" fill="#FFFFFF" p-id="12002"></path><path d="M236.325024 914.091494c-9.776783-8.432161-19.4656-19.691798-28.526089-34.432372-33.602978-54.589132-17.555483-134.46218-3.217039-205.802535 7.112672-35.399996 13.810648-68.701377 13.810648-95.794878 0-62.983593-4.209797-113.09903-25.133118-138.232148 5.466453 1.482854 10.329711 6.57231 14.602342 13.295419A14.074546 14.074546 0 0 0 205.825985 452.39612C226.736739 477.529238 225.605749 527.644675 225.605749 590.628268c0 27.093501-11.737166 65.132475-18.849838 100.532471-14.338444 71.352921-19.980829 146.47581 13.609583 201.064942 5.152289 8.369328 10.505643 15.620233 15.95953 21.865813zM232.567623 491.679183L231.889029 502.662356c3.619169 10.430244 10.807241 17.919913 11.636633 12.566558 2.136315-14.011713 6.283279-43.982956 6.283279-56.549515 0-7.326304-2.136315-29.883277-6.408945-49.763573-1.068158-2.890309-2.123748-5.943982-3.191905-9.047922-2.638977-7.703301-5.40362-15.670499-8.494994-22.092011a13.358252 13.358252 0 0 0-0.753994-0.779126h0.376997c-3.669435-7.389137-7.841533-12.566559-12.943556-12.566559 12.566559 11.812565 18.849838 69.116074 18.849839 81.682633 0 9.852182-3.996166 34.595737-4.67476 45.566342zM248.690518 400.885795c1.407455 3.769968 2.764643 7.690734 4.084131 11.548668 1.822151 5.252822 3.581469 10.392544 5.403621 14.828539l0.578061-2.613844c3.594036-16.235994 14.237911-64.240249 25.987644-99.137583 0.603195-15.846431 1.947817-32.296056 4.737593-49.047279-14.991905 14.991905-33.075183 90.328425-40.79105 124.421499zM295.965912 437.517314c-0.628328 6.346112-1.545687 12.315228-2.865175 17.869647l0.314164-0.552929c5.328221-9.374653 11.184237-19.704364 14.916505-33.854309a154.191678 154.191678 0 0 1-12.365494 16.537591zM301.331833 475.795053c-4.335463 8.293929-7.539935 16.512458-7.539935 26.867303 3.267305-2.186581 6.17018-4.184664 8.821724-6.057082 3.744835-12.139296 9.123322-24.454524 22.594673-37.925875-9.424919 6.283279-15.708199 10.995739-21.991478 15.708199l-1.884984 1.407455zM306.157392 538.376516A75.713517 75.713517 0 0 0 318.912449 527.795473c-2.890309 11.510968-11.938231 19.076036-20.910754 25.698613 3.518636-5.177422 6.094781-10.204046 8.130563-15.11757z" fill="#DEEECE" p-id="12003"></path><path d="M438.131393 5.554419C396.561216 18.560807 332.320967 38.654735 323.612342 69.116074c-6.157614 21.551648-16.76379 33.577845-26.766771 44.912881-10.392544 11.787432-20.131627 22.820871-23.499465 43.053031-2.70181 16.210861-1.922684 27.772095-1.143557 39.169964 1.017891 15.142703 2.023216 29.996376-5.139722 55.079228-3.606602 12.641958-11.347603 35.148665-17.844514 53.998503-2.802343 8.193396-5.391054 15.695632-7.288604 21.40085-6.283279 18.849838-6.283279 69.116074 12.566559 94.249192 13.056655 17.404684 14.702874 44.096055 16.122895 67.042591 0.628328 10.178913 1.20639 19.628965 2.726943 27.2066 3.191906 15.984663 16.148028 21.815546 28.111393 27.194034 11.536101 5.202555 22.154843 9.977848 22.154843 23.072202 0 11.862832-2.802343 22.330775-5.755484 33.37678-3.305005 12.352927-6.811075 25.434715-6.811075 42.022573 0 15.708199 6.283279 25.133118 12.566559 34.558037s12.566559 18.849838 12.566559 34.558037c0 20.458358-4.536528 38.164639-8.54526 53.797439-4.624494 17.970179-8.532693 33.213415-4.021299 46.735032 6.283279 18.849838 6.283279 94.249192 6.283279 125.665589 0 10.983172-3.845367 21.199785-7.489669 30.913735-6.785942 18.083278-12.943556 34.432371 7.489669 50.768898 5.818317 4.649627 21.76528 6.509478 44.058356 6.031948-15.683065-0.376997-26.829603-2.312247-31.491797-6.031948-20.433225-16.336527-14.288177-32.698186-7.489669-50.768898 3.644302-9.71395 7.489669-19.930562 7.489669-30.913735 0-31.416397 0-106.815751-6.283279-125.665589-4.511395-13.521617-0.603195-28.764853 4.021299-46.735032 4.008732-15.632799 8.54526-33.339081 8.54526-53.797439 0-15.708199-6.283279-25.133118-12.566559-34.558037s-12.566559-18.849838-12.566559-34.558037c0-16.587858 3.50607-29.657079 6.811075-42.022573 2.953141-11.046005 5.755484-21.513949 5.755484-33.37678 0-13.094354-10.618742-17.869647-22.154844-23.072202-11.963364-5.378487-24.919486-11.209371-28.111392-27.194034-1.507987-7.577635-2.098615-17.027687-2.726943-27.2066-1.420021-22.946537-3.06624-49.637908-16.122895-67.042591-18.849838-25.133118-18.849838-75.399353-12.566559-94.249192 1.89755-5.705218 4.486262-13.207453 7.288604-21.40085 6.496911-18.849838 14.237911-41.356545 17.844514-53.998503 7.162939-25.082852 6.157614-39.936524 5.139722-55.079228-0.779127-11.410435-1.558253-22.97167 1.143557-39.169964 3.367838-20.23216 13.106921-31.265599 23.499465-43.053031 10.002981-11.335036 20.609157-23.361233 26.766771-44.912881 8.708625-30.461339 72.948874-50.555266 114.519051-63.561655 3.355271-1.043024 6.547177-2.048349 9.563151-3.015974L455.573777 0c-5.064323 1.683919-10.970606 3.54377-17.429817 5.554419z" fill="#2D5E00" opacity=".12" p-id="12004"></path><path d="M336.178901 69.116074c10.053247-35.186365 94.249192-56.549515 131.948868-69.116074 50.266236 27.231733 178.445136 96.762503 289.030855 157.081986 138.232148 75.399353-6.283279 703.727298-31.416398 766.560092s-351.863649 119.382309-383.280046 94.249192 0-50.266236 0-81.682633 0-106.815751-6.283279-125.665589c-8.419594-25.296483 12.566559-56.549515 12.566559-100.532471 0-31.416397-25.133118-37.699677-25.133118-69.116074s12.566559-50.266236 12.566559-75.399353c0-26.653671-43.982956-18.849838-50.266236-50.266236-4.926091-24.643022 0-69.116074-18.849838-94.249191s-18.849838-75.399353-12.566559-94.249192 19.955696-57.278375 25.133118-75.399353c12.566559-43.982956 0-56.549515 6.283279-94.249192 6.61001-39.685193 37.699677-43.982956 50.266236-87.965912z" fill="#6BC615" p-id="12005"></path><path d="M436.045344 43.16613a6.283279 6.283279 0 0 0-6.182747-10.932906l6.182747 10.932906z m-109.55526 118.125653a6.283279 6.283279 0 1 0 11.862831 4.146965l-11.862831-4.146965z m103.372513-129.058559c-49.763573 28.123959-87.714581 84.070279-103.372513 129.058559l11.862831 4.146965c14.929072-42.889665 51.233861-96.00851 97.692429-122.272618l-6.182747-10.932906z" fill="#FFFFFF" opacity=".6" p-id="12006"></path><path d="M288.840673 523.522843c5.303088 9.952715 15.569966 14.577208 25.183384 18.900105 2.978274 1.344622 5.893716 2.651544 8.58296 4.084132-2.915442-8.444728-11.724599-12.403194-21.149518-16.650691-4.247497-1.910117-8.608093-3.8705-12.616826-6.320979zM342.437047 918.954752l0.025133 8.042598c2.70181 0.904792 5.466453 1.884984 8.268796 2.928008 50.266236 18.849838 69.116074 25.133118 106.81575 25.133118 17.505217 0 37.72481-6.773375 57.504574-13.408519 22.820871-7.640468 45.051114-15.079871 61.877736-11.724599 19.603832 3.920766 40.489453-9.739083 53.696906-21.916079-13.157187 10.178913-43.392328 13.923747-66.263465 9.34952-16.826622-3.367838-39.056865 4.084132-61.877736 11.724599C482.704977 935.731108 462.485384 942.491917 444.980168 942.491917c-36.606386 0-55.443658-5.931416-102.543121-23.537165zM634.295377 904.478076C684.486213 847.740063 740.231469 709.382249 702.594625 364.430208c-14.71544-134.952276-60.482848-223.49625-113.46346-279.505403 58.183168 55.003828 110.158455 146.55121 126.042585 292.071962 37.699677 345.580369-25.133118 464.962679-75.399353 521.512194-1.507987 1.797018-3.355271 3.8328-5.47902 5.969115z" fill="#5DAE11" p-id="12007"></path><path d="M334.243651 947.769871c-26.188709-74.896691 113.186996-288.628725 131.948868-345.077707 18.761872-56.461549 6.873908-82.147595-31.416397-100.871768-34.331839-16.801489-107.795942-55.707556-107.871342-80.840673 38.755268 37.197014 74.946957 24.630455 158.137577 80.840673-37.699677-49.939505-37.699677-62.506064-82.851322-118.766548 45.151646 12.277528 82.486893 87.714581 94.550789 100.24344-19.076036-75.336521-57.039611-163.189334-94.87752-213.34247 52.239185 34.281573 98.396156 89.536732 110.887316 127.563139-18.460275-82.135029 25.560381-138.244714-16.964855-234.655354 75.713517 106.589553 57.052177 169.472613 57.089877 182.039172 44.359953-56.675181 57.994669-75.198288 70.397863-131.785503 7.125239 100.519905-31.667728 119.105845-38.202339 213.38017 18.787006-25.195951 64.001484-43.706492 69.618736-87.714581 13.194887 31.378698-44.925448 119.055579-44.787216 163.038535 12.440893-44.020656 57.504573-43.668792 69.920334-93.972727 18.962937 37.64941-62.078801 87.664315-50.354201 156.742689 6.408945 37.674544 71.704785 283.137138 32.032158 383.19208-24.944619 62.895627-301.069618 74.896691-327.258326 0z" fill="#FFFFFF" p-id="12008"></path><path d="M333.59019 435.896228c12.466026 7.602768 25.510115 12.176996 40.703084 17.505217 24.730988 8.670926 55.167194 19.352501 98.182524 48.418951h12.792757c-1.847284-2.513312-18.975504-12.063897-23.70053-14.853672-31.0394-18.246644-54.739931-26.565705-74.708192-33.565279-23.122468-8.10543-41.23088-14.451543-59.942486-32.421722 0 4.586794 2.463046 9.625984 6.672843 14.916505zM409.894335 392.780365c25.459848 17.304152 47.124596 50.429601 61.174009 71.930983 5.705218 8.721192 9.211288 9.764216 12.151862 12.81789 6.283279 6.283279 12.566559 6.283279 12.566559 6.283279-1.16869-4.084132-17.505217-27.281999-20.269859-31.40383-17.945046-26.729071-43.982956-61.375074-73.325871-69.354839 2.726943 3.392971 5.277955 6.635143 7.7033 9.726517zM414.996358 288.842356c41.105214 33.489879 74.796159 77.045573 85.188703 108.675601 1.884984-1.671352 8.168263-1.671352 12.85559 0-0.80426-5.969115-12.85559-27.872628-17.392118-34.067941-20.935887-32.459422-55.757822-68.538012-93.796796-93.495198 4.398296 5.818317 8.796591 12.139296 13.144621 18.887538zM509.949277 205.337572c38.202339 70.033433 38.164639 103.498179 36.103724 121.392959-0.314164 2.764643-0.565495 4.875825-0.552929 6.320979 0.552929 6.24558 0.552929 6.24558 6.836208 12.528859 2.211714-2.576145 1.89755-13.798082 2.224281-18.98807 1.759318-27.847494-1.683919-83.366552-58.773796-163.742262 6.64771 15.067304 11.184237 29.154417 14.162512 42.487535zM610.896445 256.056204c-2.261981 31.152499-9.801916 53.332476-17.681149 76.517777C584.506671 358.172061 580.359707 373.214232 577.469398 414.696443c0 6.283279 2.601278 9.27412 7.288604 11.787433 1.633653-4.67476 0.791693-7.04984 1.633653-14.539509 3.782534-33.464746 11.749733-56.888812 19.3902-79.370386 11.083705-32.585087 21.488816-63.172092 17.49265-119.457709-3.744835 17.09052-7.602768 30.700103-12.37806 42.939932zM640.176527 373.101133c-4.31033 15.293502-11.624067 33.01235-19.013204 50.869431-11.862832 28.714587-20.031095 42.965065-19.968262 62.99616 0 6.283279 7.690734 15.695632 8.972523 14.853672-0.691161-5.44132 1.055591-16.173161 5.403621-30.210007 4.611927-14.841106 11.410435-31.303298 18.158677-47.627259 14.200212-34.331839 28.149092-68.110749 20.96102-85.201269-1.721619 13.54675-7.200638 24.668155-14.514375 34.319272zM666.918164 435.607197c-3.983599 10.44281-11.171671 21.689881-18.925238 33.804044-17.253885 26.992968-37.32268 58.384233-31.089666 95.179117 0.967625 5.680085 3.267305 16.072629 6.346112 29.971243 17.341851 78.365061 59.376991 268.245766 25.686046 353.220837-12.667091 31.931626-90.089661 50.756331-166.657704 51.736523 80.463677 1.043024 165.866011-18.058145 179.224263-51.736523 33.690944-84.975071-8.344195-274.855776-25.686046-353.220837-3.078807-13.898614-5.378487-24.291158-6.346112-29.971243-6.24558-36.794884 13.823215-68.186149 31.089666-95.179117 15.142703-23.675397 28.123959-43.97039 19.264535-61.563572a75.499886 75.499886 0 0 1-12.905856 27.772095z" fill="#DEEECE" p-id="12009"></path></svg>