<svg t="1646189954153" class="icon" viewBox="0 0 1024 1024" version="1.1" xmlns="http://www.w3.org/2000/svg" p-id="13512" width="200" height="200"><path d="M704.91743 379.272808l-16.588041-16.58804-35.18814 51.77618 51.776181-35.18814z" fill="#FD9526" p-id="13513"></path><path d="M603.92587 286.146564c-64.488724-35.896932-149.452418-16.107891-189.259144 51.444648l-364.571071 618.478989C26.568303 995.991247 71.61095 1041.033895 111.509132 1017.460814l618.478989-364.571072c67.541107-39.806725 87.330148-124.770419 51.444648-189.259143l-128.314384-49.158219z m-325.816104 487.432322L250.524003 746.015987l13.718573-13.787165 27.574331 27.574331z m203.800831-45.968651l-68.912964-68.924396 13.775734-13.718572 68.912964 68.912963z m1.143214-196.381369l-68.878667-68.912964 13.787166-13.787165 68.912964 68.912964z" fill="#FD9526" p-id="13514"></path><path d="M676.01697 350.372349l-40.812754-40.812754c-1.932032-1.943464-4.024115-3.578261-6.036172-5.373108l28.225963 73.588711zM717.229849 391.585228l-27.437146 18.622962 73.588711 28.225964c-1.794847-2.012057-3.429643-4.10414-5.373108-6.036172z" fill="#FD9526" p-id="13515"></path><path d="M980.397803 376.551958l-173.539946-66.569374-101.940427 69.290224-51.776181 35.18814 128.314384 49.158219L826.704059 481.01889z m-216.982093 61.882196l-73.58871-28.225964 27.437145-18.622962 91.857277-62.419507 134.590631 51.638995L824.417631 461.858617zM688.375117 362.684768l97.173224-142.9018L701.156254 0 568.84062 194.689412l35.08525 91.457152 49.158219 128.314384z m-100.317063-165.766088l108.845443-160.23293 69.370249 180.86795-90.256776 132.818649-18.622963 27.437145-28.225963-73.588711z" fill="#8CBE46" p-id="13516"></path><path d="M414.164855 462.310186l13.783736-13.782593 68.912964 68.914108-13.782593 13.782592zM412.997633 658.685839l13.782593-13.782592 68.914107 68.914107-13.782593 13.782592zM250.512571 745.998839l13.782593-13.782593 27.565185 27.565186-13.782593 13.782592z" fill="#FFFFFF" p-id="13517"></path></svg>