<svg t="1646189990606" class="icon" viewBox="0 0 1024 1024" version="1.1" xmlns="http://www.w3.org/2000/svg" p-id="15312" width="200" height="200"><path d="M894.76608 423.02464c9.3184-100.1728-56.06912-166.79936-161.05984-168.46848-35.92192-71.26528-124.17536-121.68192-227.44576-121.68192-99.69664 0-185.40544 46.98624-223.5392 114.35008h-0.06656c-106.43456 0-162.69312 58.99264-162.69312 165.4272 0 77.80352 44.96896 142.81728 82.47808 202.5216 37.51936 59.6992 24.192 256.7424 24.192 256.7424 0 53.8368 19.456 98.28864 73.2928 98.28864 24.54016 0 46.94016-9.088 64.08704-24.04352 34.08896 40.51456 85.1456 66.26816 142.23872 66.26816 60.03712 0 113.39776-28.48768 147.3792-72.6528a97.152 97.152 0 0 0 70.72256 30.42816c53.84704 0 81.39776-40.00256 81.39776-93.83936 0 0-9.43616-175.06304 16.08192-259.38432 25.53344-84.33152 67.0208-130.25792 72.9344-193.95584z" fill="#D0372E" p-id="15313"></path><path d="M612.13184 25.25696a15.96416 15.96416 0 0 0-21.08416-8.11008c-82.87744 36.84352-99.3536 111.5392-99.98336 162.7648-1.31072 16.17408-1.78176 21.42208-4.95104 25.83552-3.59936 5.0176-4.75648 7.04-10.368 9.82528-2.47296 0.97792-5.47328 1.57696-6.4512 1.57696a28.5184 28.5184 0 0 0-28.52352 28.52352c0 15.75936 9.51808 4.70528 25.27744 4.70528 8.70912 0 16.8704 14.09024 24.8832 13.68576 8.0128-0.39936 8.05888-10.66496 16.768-10.66496 8.71424 0 16.49152 11.06944 26.51136 10.66496 10.01984-0.39936 10.65984-12.77952 19.36896-12.77952 15.75424 0 30.79168 10.14272 30.79168-5.61664 0-15.75424-4.864-23.96672-25.35424-27.24864-4.92032-0.78848-9.03168-0.01536-16.75264-1.92512s-13.63456-2.70848-16.74752-5.99552c-3.85536-4.07552-4.30592-13.696-3.1744-31.616 0.48128-42.40896 14.24384-102.54848 81.71008-132.53632a15.9744 15.9744 0 0 0 8.07936-21.08928z" fill="#84B857" p-id="15314"></path><path d="M377.67168 619.60704a11.52 11.52 0 0 0-23.04 0v282.99264a11.52 11.52 0 0 0 23.04 0v-282.99264z" fill="#B72A26" p-id="15315"></path><path d="M366.15168 583.87968m-12.48256 0a12.48256 12.48256 0 1 0 24.96512 0 12.48256 12.48256 0 1 0-24.96512 0Z" fill="#B72A26" p-id="15316"></path></svg>