<svg t="1644906130819" class="icon" viewBox="0 0 1024 1024" version="1.1" xmlns="http://www.w3.org/2000/svg" p-id="1337" width="200" height="200"><path d="M568.432701 541.464109C699.621313 471.07022 708.42055 289.485982 675.978921 253.133582l-79.015363-20.264907c-64.172207 125.500217-191.450048 214.914678-410.453259 117.145386a19.731621 19.731621 0 0 0-28.619738 16.265255C151.224473 467.959379 331.831017 668.0309 568.432701 541.464109z" fill="#FFDC0B" p-id="1338"></path><path d="M247.660546 550.085583a305.928999 305.928999 0 0 1-78.659838-57.328357c-63.816683-64.438851-97.769291-155.27541-79.993057-215.981252a35.552469 35.552469 0 0 1 22.753581-23.997917 37.86338 37.86338 0 0 1 34.397014 5.688396c206.648728 153.142262 344.059023 71.104939 422.985505-24.264561a15.643087 15.643087 0 0 1 19.109452-3.999653l75.904522 38.396667a15.643087 15.643087 0 0 1 6.577207 6.310564c14.309869 25.508897 8.888117 78.03767-12.710008 130.744206-15.820849 38.752192-64.438851 131.455256-170.918496 161.31933-103.279924 29.064144-182.739693 11.821196-239.445882-16.887423zM126.693269 282.819894a6.04392 6.04392 0 0 0-4.621821-0.444406 4.177415 4.177415 0 0 0-2.755316 3.199722c-12.265602 42.218557 8.888117 121.500564 71.904869 185.228366 42.840726 42.840726 136.432601 108.523913 287.441715 66.127593C571.810186 510.711223 615.184199 428.051732 629.405186 393.743599c19.376096-46.662616 20.975957-84.259352 15.90973-99.813558l-59.905911-30.30848c-65.594306 74.926829-191.183404 164.430171-375.70072 71.104938A570.617134 570.617134 0 0 1 127.404318 283.530943zM482.929012 551.952087z" fill="#F2C403" p-id="1339"></path><path d="M137.981178 921.78665a293.307873 102.21335 0 1 0 586.615745 0 293.307873 102.21335 0 1 0-586.615745 0Z" fill="#FFED92" p-id="1340"></path><path d="M780.947587 213.848103L512.437562 195.538582 502.838395 84.970402a12.176721 12.176721 0 0 1 21.15372-10.665741c21.598125 24.886729 209.226282 50.395625 259.888551 34.130371z" fill="#8ED420" p-id="1341"></path><path d="M623.983435 641.988716c149.053728-136.788126 99.280271-379.255967 44.440587-416.319416h-111.101467c-42.129676 186.650464-179.717733 347.880913-501.289819 293.307872a26.664352 26.664352 0 0 0-32.263866 31.197292c25.686659 135.810433 331.526777 338.637271 600.214565 91.814252z" fill="#FFFFFF" p-id="1342"></path><path d="M781.214231 638.700113c62.216821-232.868675-21.775888-433.917889-131.721899-417.741516l-71.104939 42.662964c14.220988 78.03767 20.975957 457.915806-439.784047 608.391632a23.997917 23.997917 0 0 0-14.309869 35.019183c65.772068 113.145734 563.595521 79.015363 656.920754-268.332263z" fill="#FFFFFF" p-id="1343"></path><path d="M806.18984 573.727975c26.219946-214.114747-73.771374-381.477997-168.874229-353.036021l-57.950525 46.751497c22.220293 67.283048 75.904522 402.720597-313.306137 593.81512a21.509244 21.509244 0 0 0-8.265949 32.797153c72.793681 91.63649 509.555768-1.066574 548.39684-320.327749z" fill="#FFDC0B" p-id="1344"></path><path d="M670.201645 218.469924C725.930141 275.531638 764.326808 397.387727 746.906098 539.864248 714.020064 810.240778 395.825462 918.053641 254.948802 888.811735a21.331482 21.331482 0 0 0 2.844198 4.888465c72.793681 91.63649 509.289124-1.066574 548.39684-319.972225 23.375749-189.405781-52.351011-342.103637-135.988195-355.258051z" fill="#F9CA06" p-id="1345"></path><path d="M295.567499 984.536759c-91.547609 0-163.363597-24.620085-188.428088-67.460811a42.39632 42.39632 0 0 1-3.199722-36.619043 44.440587 44.440587 0 0 1 28.264213-26.664352c489.913028-159.986112 427.518445-582.260568 426.629633-586.615745a19.376096 19.376096 0 0 1 8.888117-20.087146l71.104939-42.662963a19.642739 19.642739 0 0 1 7.021612-2.488673c37.507855-5.599514 74.482423 9.599167 104.168736 42.929607 59.81703 67.016405 97.769291 216.247895 49.151289 398.632063-56.261783 212.781529-257.577641 312.861731-426.896277 335.704193a576.483291 576.483291 0 0 1-76.704452 5.33287z m303.618088-711.049388c17.776235 136.965888-30.130718 478.091832-454.982727 616.835344a6.221682 6.221682 0 0 0-3.999653 3.466366 3.466366 3.466366 0 0 0 0 3.288603c19.464977 33.152678 105.501953 59.639267 226.46923 43.285132 156.964152-21.153719 343.259092-112.967972 395.432341-307.084455 45.062755-167.541012 10.487978-305.484593-40.618696-362.81295-13.687701-15.376443-36.174638-33.152678-65.505425-30.486243z" fill="#F2C403" p-id="1346"></path><path d="M1008.305629 292.063536l-13.332176-8.443711 8.443711-13.332176a7.732662 7.732662 0 0 0-12.976651-8.265949l-8.443711 13.332176-13.332176-8.443712a7.732662 7.732662 0 1 0-8.265949 12.976651l13.332176 8.443712-8.443712 13.332176a7.732662 7.732662 0 0 0 12.976651 8.265949l8.888118-13.421057 13.332176 8.443711a7.732662 7.732662 0 0 0 10.576859-2.399791 7.643781 7.643781 0 0 0-2.488672-10.487979zM913.202773 544.308307l-13.332176-8.443712 8.443712-13.332176a7.732662 7.732662 0 0 0-12.976652-8.177068l-8.443711 13.332176-13.332176-8.443711a7.732662 7.732662 0 1 0-8.443711 12.976651l13.332176 8.443711-8.443712 13.332176a7.732662 7.732662 0 1 0 12.976651 8.177068l8.443712-13.332176 13.332176 8.443712a7.732662 7.732662 0 1 0 8.265949-12.976651z" fill="#F7E42F" p-id="1347"></path><path d="M884.494154 213.314816a17.776235 17.776235 0 1 0 16.176374-8.888117 17.776235 17.776235 0 0 0-15.820849 8.265949z m0 0M881.027789 410.275497a36.174638 36.174638 0 1 1 49.951219-11.287909 36.263519 36.263519 0 0 1-49.951219 11.287909z m29.064143-45.862686a18.309522 18.309522 0 1 0 5.688395 25.331135 18.309522 18.309522 0 0 0-5.688395-25.331135z m0 0M168.023015 170.118566H149.624612v-18.398403a8.888117 8.888117 0 1 0-17.776235 0v18.309522h-18.220641a8.888117 8.888117 0 0 0 0 17.776235h18.309522v18.398403a8.888117 8.888117 0 0 0 17.776235 0v-18.398403h18.309522a8.888117 8.888117 0 1 0 0-17.776235z m0 0M316.543456 289.30822a36.174638 36.174638 0 1 1 36.174637-36.174638 36.263519 36.263519 0 0 1-36.174637 36.174638z m0-54.573041a18.309522 18.309522 0 1 0 18.309521 18.309522 18.309522 18.309522 0 0 0-18.309521-18.309522z m0 0" fill="#F8B62D" p-id="1348"></path><path d="M277.257977 95.280618a4.888465 4.888465 0 0 0-6.932732 0 4.977346 4.977346 0 0 0 0 6.932732l15.820849 15.820848a4.977346 4.977346 0 0 0 6.932732 0 4.888465 4.888465 0 0 0 0-6.932731z m41.68527 41.863033a4.977346 4.977346 0 0 0-6.932731 0 4.888465 4.888465 0 0 0 0 6.932731L327.831365 159.986112a4.888465 4.888465 0 0 0 6.932731-6.932731z m-3.466365-17.776235a4.977346 4.977346 0 0 0 3.466365-1.422099l15.820849-15.820849a4.977346 4.977346 0 0 0 0-6.932731 4.888465 4.888465 0 0 0-6.932731 0l-15.820849 15.820849a4.888465 4.888465 0 0 0 0 6.932731 4.977346 4.977346 0 0 0 3.466366 1.422099z m-29.419669 17.776235l-15.731968 15.731967a4.888465 4.888465 0 0 0 6.932732 6.932732l15.820849-15.820849a4.888465 4.888465 0 1 0-6.932732-6.932731z m3.110841-9.510286a4.888465 4.888465 0 0 0-4.888464-4.888464h-22.309175a4.888465 4.888465 0 0 0 0 9.776929h22.220293a4.888465 4.888465 0 0 0 4.977346-4.888465z m54.039754-4.977346h-22.309175a4.888465 4.888465 0 0 0 0 9.77693h22.309175a4.888465 4.888465 0 0 0 0-9.77693zM302.50023 81.859561a4.888465 4.888465 0 0 0-4.888464 4.888464v22.309175a4.888465 4.888465 0 1 0 9.776929 0V86.748025a4.888465 4.888465 0 0 0-4.888465-4.888464z m0 59.017099a4.888465 4.888465 0 0 0-4.888464 4.888465v22.309174a4.888465 4.888465 0 1 0 9.776929 0V145.765125a4.799583 4.799583 0 0 0-4.888465-4.888465z m0 0" fill="#FAEE00" p-id="1349"></path><path d="M697.754809 611.680236c119.900703-146.653936 41.329746-364.412811-14.665394-391.699332L580.698303 234.735179c-14.043225 179.006683-119.989584 346.636577-425.385296 338.459509a25.153372 25.153372 0 0 0-25.686659 33.152678c41.596389 122.478257 352.058328 269.754362 568.128461 5.33287z" fill="#FFDC0B" p-id="1350"></path><path d="M363.117191 787.220554a404.853745 404.853745 0 0 1-127.18896-20.709314C122.071448 728.825623 28.212929 641.366548 12.747605 559.151463a46.751497 46.751497 0 0 1 12.443364-42.040796 50.128982 50.128982 0 0 1 43.996181-13.865463C404.802461 560.662442 518.481482 382.189046 554.033951 222.202934a20.709313 20.709313 0 0 1 20.176027-16.087493h112.701328a20.620432 20.620432 0 0 1 11.554552 3.555247c32.086104 21.598125 57.506119 86.748025 63.194515 162.03038 4.177415 55.106328 2.222029 193.849839-105.590835 292.774585C551.278635 760.111796 447.376543 787.220554 363.117191 787.220554zM60.476795 543.952782a7.999306 7.999306 0 0 0-5.777277 2.222029 5.599514 5.599514 0 0 0-1.333217 5.332871c10.754622 57.239476 83.015016 138.299106 195.538582 175.806961 75.904522 25.242253 226.113705 46.662616 379.078205-93.680757C722.908181 546.974742 724.063636 423.518792 720.419508 374.456384c-5.066227-66.749761-25.597778-112.07916-40.88534-127.366722h-88.881173C557.855842 374.723028 463.108511 555.507334 189.62114 555.596216a755.489975 755.489975 0 0 1-127.366722-11.554553zM642.026313 648.832567z" fill="#F2C403" p-id="1351"></path><path d="M411.824074 570.261609l-0.888812-1.422099a12.798889 12.798889 0 0 1 3.733009-17.776234 135.54379 135.54379 0 0 0 12.354483-8.888118 12.798889 12.798889 0 0 1 16.354136 19.64274 157.497439 157.497439 0 0 1-14.665393 10.843503 12.798889 12.798889 0 0 1-16.887423-2.399792zM165.356579 599.770159a12.798889 12.798889 0 0 1 12.887771-21.509244 251.800365 251.800365 0 0 0 185.672771-4.444059 12.798889 12.798889 0 1 1 10.57686 23.286868 277.487024 277.487024 0 0 1-204.426699 5.243989 12.710008 12.710008 0 0 1-4.710703-2.577554z" fill="#FFFFFF" p-id="1352"></path><path d="M490.942419 500.862532m-6.648014 18.01055a19.198333 19.198333 0 1 0 13.296029-36.0211 19.198333 19.198333 0 1 0-13.296029 36.0211Z" fill="#3E3A39" p-id="1353"></path><path d="M636.183397 554.651876m-6.648014 18.01055a19.198333 19.198333 0 1 0 13.296028-36.021101 19.198333 19.198333 0 1 0-13.296028 36.021101Z" fill="#3E3A39" p-id="1354"></path><path d="M540.612894 589.99323a47.818071 47.818071 0 0 1-28.264213-61.32801l3.110841-8.443711a9.599167 9.599167 0 0 1 12.354483-5.688396l71.104939 26.664352a9.599167 9.599167 0 0 1 5.688395 12.354484l-3.110841 8.443711a47.818071 47.818071 0 0 1-60.883604 27.99757z" fill="#3E3A39" p-id="1355"></path><path d="M551.189754 561.462373a30.30848 30.30848 0 0 0-26.664352 2.933079 38.041142 38.041142 0 0 0 45.418279 16.798542 30.30848 30.30848 0 0 0-18.753927-19.731621z" fill="#FFFFFF" p-id="1356"></path><path d="M799.434871 222.202934a21.598125 21.598125 0 0 1-5.421751 12.354483 15.643087 15.643087 0 0 1-12.621127 4.977346l-321.394323-32.974916a19.020571 19.020571 0 0 1-15.90973-18.753927L434.399892 41.863033A39.818766 39.818766 0 0 1 453.509344 3.82189a30.130718 30.130718 0 0 1 38.307786 7.999306c22.220293 26.042184 229.49119 69.060672 293.307872 48.795764a15.287562 15.287562 0 0 1 15.376443 3.821891 22.131412 22.131412 0 0 1 6.310564 16.976304l-7.199375 139.010155c-0.088881 0.622168-0.088881 1.244336-0.177763 1.777624z m-322.194254-55.017447l288.952695 30.219599 4.53294-91.814252c-64.616613 11.732315-271.709747-29.597431-301.662703-63.372277z" fill="#86C617" p-id="1357"></path></svg>