<svg t="1652621717873" class="icon" viewBox="0 0 1024 1024" version="1.1" xmlns="http://www.w3.org/2000/svg" p-id="3878" width="200" height="200"><path d="M123.94406503 900.05593497l445.71518947-438.39337938s242.53495935 149.18188065 352.36211074-104.33579382c9.15226261 172.97776348-177.55389477 243.45018563-177.55389475 243.4501856l-135.45348676 11.89794144-27.45678783-13.72839395-101.59011506 108.91192514s-60.40493329-21.05020402-64.06583832-14.64362018c-3.66090506 6.40658382 4.5761313 64.98106459 4.57613131 64.98106457s-40.26995552 64.98106459-47.5917656 63.15061206c-7.3218101-2.74567878-82.37036355-10.98271516-82.37036356-10.98271512s-10.98271516 107.99669887-24.71110906 108.91192513c-12.81316766 0.91522626-141.86007057-19.21975149-141.86007058-19.21975149z" fill="#ffffff" p-id="3879"></path><path d="M696.87570487 423.22305263c-24.71110907 0-49.42221811-9.15226261-67.72674338-28.37201412-37.52427671-37.52427671-37.52427671-97.92921001 0-135.45348674 37.52427671-37.52427671 97.92921001-37.52427671 135.45348674 0 37.52427671 37.52427671 37.52427671 97.92921001 0 135.45348674-18.30452524 18.30452524-43.01563429 28.37201411-67.72674336 28.37201412z m0-156.50369076c-15.55884645 0-31.1176929 5.49135757-43.0156343 17.38929897-23.79588279 23.79588279-23.79588279 61.32015954 0 85.11604233 23.79588279 23.79588279 61.32015954 23.79588279 85.11604232 0 23.79588279-23.79588279 23.79588279-61.32015954 0-85.11604233-10.98271516-10.98271516-26.54156159-17.38929897-42.10040802-17.38929897zM265.80413561 940.3258905h-2.74567882l-141.86007055-21.96543031c-7.3218101-0.91522626-13.72839391-7.3218101-14.64362019-14.64362018l-21.96543028-141.86007055c-0.91522626-5.49135757 0.91522626-10.98271516 4.57613131-15.55884645l321.24441788-321.24441787c7.3218101-7.3218101 18.30452524-7.3218101 25.6263353 0 7.3218101 7.3218101 7.3218101 18.30452524 0 25.62633532l-315.75306027 314.83783405 19.21975148 119.89464027 112.5728302 17.38929898 21.96543028-92.43785243c1.83045253-8.23703635 10.06748889-13.72839391 18.30452523-13.72839394l69.55719588 4.5761313 41.1851818-41.18518175-16.47407272-63.15061207c-1.83045253-6.40658382 0-12.81316766 4.57613131-17.38929896s10.98271516-6.40658382 17.38929898-4.57613133l61.32015955 17.38929899 32.94814541-32.94814542c7.3218101-7.3218101 18.30452524-7.3218101 25.62633531 0 7.3218101 7.3218101 7.3218101 18.30452524 0 25.62633533l-40.26995549 40.2699555c-4.5761313 4.5761313-10.98271516 6.40658382-17.38929898 4.57613131l-41.18518178-11.8979414 10.98271513 43.01563432c1.83045253 6.40658382 0 12.81316766-4.57613132 17.38929896l-53.99834942 53.99834942c-3.66090506 3.66090506-9.15226261 5.49135757-13.72839395 5.49135758l-62.23538578-4.57613131-22.88065652 93.35307871c-1.83045253 8.23703635-9.15226261 13.72839391-17.38929898 13.72839393z" fill="#ffffff" p-id="3880"></path><path d="M667.58846451 630.97941402c-28.37201411 0-56.74402823-4.5761313-85.11604234-13.72839392-9.15226261-2.74567878-14.64362017-12.81316766-11.89794141-22.88065655 2.74567878-9.15226261 12.81316766-14.64362017 22.88065654-11.89794138 86.03126862 27.45678784 178.46912103 5.49135757 241.61973311-57.65925451 92.43785244-92.43785244 92.43785244-243.45018563 0-336.80326429-92.43785244-92.43785244-243.45018563-92.43785244-336.80326432 0-63.15061206 63.15061206-86.03126862 156.50369075-57.65925451 241.61973308 2.74567878 9.15226261-1.83045253 19.21975149-11.8979414 22.88065652-9.15226261 2.74567878-19.21975149-1.83045253-22.88065655-11.89794139-31.1176929-97.01398373-5.49135757-204.09545636 67.72674338-276.39833105 107.08147262-107.08147262 280.05923609-107.08147262 387.14070871 0 107.08147262 107.08147262 107.08147262 280.05923609 0 387.14070871-53.08312319 51.25267068-121.72509279 79.62468477-193.11274121 79.62468478z" fill="#ffffff" p-id="3881"></path></svg>