<svg width="600" height="580" xmlns="http://www.w3.org/2000/svg">
 <!-- Created with Method Draw - http://github.com/duopixel/Method-Draw/ -->
 <g>
  <title>background</title>
  <rect fill="#fff" id="canvas_background" height="582" width="602" y="-1" x="-1"/>
  <g display="none" overflow="visible" y="0" x="0" height="100%" width="100%" id="canvasGrid">
   <rect fill="url(#gridpattern)" stroke-width="0" y="0" x="0" height="100%" width="100%"/>
  </g>
 </g>
 <g>
  <title>Layer 1</title>
  <path id="svg_9" d="m216.67289,436.85487c0.34672,-10.16001 16.07597,-5.15126 7.41667,-15.04957c2.88844,-12.21004 11.85731,-20.34167 17.27834,-30.81569c4.15578,-8.91678 13.51707,-19.66254 8.99046,-30.68756c-8.3131,-5.77813 -5.95401,-18.62555 4.214,-15.80393c6.53845,-7.84812 6.98867,-20.95763 9.20118,-31.64344c2.00825,-12.78963 3.23717,-25.811 2.91666,-38.87815c-11.91863,0.03786 -24.06128,-0.70534 -35.55629,-4.91208c2.22677,-11.58862 16.57936,-9.09813 22.45989,-16.21732c-5.46406,-6.39525 11.04648,-5.75572 6.72628,-15.87073c-0.29645,-11.58427 -7.30906,-14.93639 -12.92705,-23.38263c-7.50525,-13.19877 4.26116,-26.38675 10.79619,-35.30993c7.28428,-9.69815 15.61534,-20.03106 17.8449,-33.74793c-2.99974,-3.20787 -9.8521,-7.80094 -2.85998,-12.18617c9.54951,-2.10686 19.73725,-2.36355 29.0962,1.09276c6.212,7.87692 -9.48155,8.30649 -2.72926,18.23812c8.00595,12.48557 -2.78789,18.92911 -9.16095,26.14626c-3.70953,6.09833 -14.7814,14.14055 -12.87649,20.46163c10.83994,-0.49184 17.15603,-14.14869 24.88805,-22.23395c8.48063,-14.15627 16.68504,8.71993 22.10813,16.4938c6.68088,11.78142 2.07167,27.61615 -7.99151,32.67586c-4.99095,6.68899 -8.30476,25.74233 3.6373,22.90574c6.93515,3.28069 -6.77893,3.63416 1.09362,6.66697c5.23173,2.61452 25.63674,8.59025 14.396,16.60505c-9.54057,2.8067 -19.3957,2.69088 -29.08748,1.55746c-0.59767,19.15979 1.5059,38.24397 5.84485,56.57074c1.07697,5.21404 2.15395,10.42806 3.23093,15.64204c5.1827,-0.13342 15.88337,-1.60814 10.93811,9.4979c-10.40304,7.46675 -4.03638,23.1803 1.73044,32.119c7.14822,11.76174 17.80869,22.77264 18.26531,38.87566c2.85893,2.21754 12.3736,8.30956 9.62143,13.07893c-45.54437,-0.30377 -91.11491,0.87807 -136.63609,-1.29333l-1.58074,-0.18871l-1.2891,-0.40685l0,0l-0.00001,0.00006z" fill-opacity="null" stroke-opacity="null" stroke-width="1.5" stroke="#2e7eee" fill="#2e7eee"/>
 </g>
</svg>