<svg t="1644905995444" class="icon" viewBox="0 0 1024 1024" version="1.1" xmlns="http://www.w3.org/2000/svg" p-id="1193" width="200" height="200"><path d="M538.686219 205.638422v-25.946086c-9.130275 0.414474-18.082918 0.722369-26.69214 0.72237s-17.550023-0.307895-26.680298-0.72237v25.946086zM460.421644 203.28184l-15.856599-26.052665c-58.429022-3.9079-123.454106-7.827642-186.679187 10.657909l2.025002 3.315793zM467.621654 178.744967l-1.492108-0.082895 1.492108 2.451319z" fill="#FC5659" p-id="1194"></path><path d="M813.541835 206.372634c-85.618531-43.377687-178.816019-32.411884-257.175331-27.627667v44.585583h-88.74485V221.447653l-218.001596-13.132912-9.000012-14.767124A269.822715 269.822715 0 0 0 210.481849 206.372634C103.630396 260.526651 37.58689 367.993894 37.58689 555.738872c0 262.006916 198.817361 468.261128 474.407189 468.261128s474.419031-206.254212 474.419031-468.261128c0-187.744978-66.043506-295.212221-172.871275-349.366238zM644.471881 672.845601a26.052665 26.052665 0 1 1 36.260573-6.975009 26.052665 26.052665 0 0 1-36.260573 6.975009z m85.973794 104.601451a26.052665 26.052665 0 1 1-6.986851-36.260573 26.052665 26.052665 0 0 1 6.986851 36.260573z m78.607996-111.150143a26.052665 26.052665 0 1 1-6.975009-36.296099 26.052665 26.052665 0 0 1 6.975009 36.296099z" fill="#FC5659" p-id="1195"></path><path d="M467.621654 221.447653v1.894739h88.74485V110.001457h-88.74485v71.111934l-1.492108-2.451319-99.971181-164.001527L122.625158 0l117.994888 193.547617 9.000012 14.767124z m17.692127-93.754068h53.372438v77.956679h-53.372438v-77.968521zM155.356779 19.693446l200.510784 12.078963 88.697482 145.492292 15.856599 26.052666-200.510784-12.078963-2.025002-3.315794z" fill="#8CBE46" p-id="1196"></path><path d="M673.745603 629.61002a26.052665 26.052665 0 1 0 6.986851 36.260572 26.052665 26.052665 0 0 0-6.986851-36.260572zM723.458824 741.186479a26.052665 26.052665 0 1 0 6.986851 36.260573 26.052665 26.052665 0 0 0-6.986851-36.260573zM802.078662 630.00081a26.052665 26.052665 0 1 0 6.975009 36.260572 26.052665 26.052665 0 0 0-6.975009-36.260572z" fill="#FFFFFF" p-id="1197"></path></svg>