<svg t="1644906145731" class="icon" viewBox="0 0 1024 1024" version="1.1" xmlns="http://www.w3.org/2000/svg" p-id="1497" width="200" height="200"><path d="M513.473561 103.936c-67.800455 0-149.424911-13.607545-172.032 90.794667-19.893073 110.08-73.844553 177.293528-73.844553 177.293528-170.317008 225.342439-90.586537 468.738081-14.315187 552.585366 64.299707 70.697626 155.764553 79.709659 263.334504 79.709659s191.88761-9.012033 256.187317-79.709659c76.267187-83.847285 156.001821-327.242927-14.315187-552.585366 0 0-53.95148-67.209366-73.836227-177.293528-22.611252-104.393886-104.235707-90.794667-172.036163-90.794667h0.857496z" fill="#ADFFA6" p-id="1498"></path><path d="M684.643902 194.730667c-22.552976-104.173268-103.886049-90.852943-171.603252-90.794667-4.179252-0.004163-8.412618-0.066602-12.683447-0.129041-5.798504 9.981919-8.40013 16.492228-8.40013 16.492228 104.298146 0 130.35187 77.994667 130.35187 161.246699 0 83.252033 33.300813 154.01626 79.089431 241.430894s33.300813 312.195122-233.105691 333.008131-281.246179-133.465496-281.246179-133.465496 2.043837 43.020488 15.817886 120.307512c14.889626 34.349789 32.743024 62.35161 50.413269 81.778471 64.299707 70.697626 155.764553 79.709659 263.334504 79.709659s191.88761-9.012033 256.191479-79.709659c76.267187-83.847285 155.997659-327.242927-14.319349-552.585365 0 0.004163-53.95148-67.209366-73.840391-177.289366z" fill="#96E68F" p-id="1499"></path><path d="M513.473561 87.285593c-6.772553 0-13.607545-0.137366-20.846309-0.283056-64.274732-1.302894-144.267447-2.901333-167.457301 104.202406l-0.062439 0.274732-0.049951 0.291382c-18.923187 104.706081-69.931707 169.193106-70.443707 169.829984l-0.154017 0.187317-0.145691 0.195642C156.701138 491.128715 144.458927 618.579252 151.377171 702.738732c8.962081 109.085138 52.153236 191.920911 89.587512 233.07239 71.47187 78.581593 175.362081 85.158504 275.651642 85.158504 100.680846 0 196.978472-6.510309 268.504455-85.158504 37.430114-41.15148 80.625431-123.987252 89.58335-233.07239 6.918244-84.167805-5.319805-211.605854-102.936976-340.754732l-0.141528-0.195642-0.154016-0.187317c-0.49535-0.616065-51.612098-65.64839-70.439545-169.829984l-0.062439-0.283057-0.062439-0.270569c-23.189854-107.10374-103.182569-105.501138-167.457301-104.202407a1037.403577 1037.403577 0 0 1-20.833821 0.283057v33.300813h0.861659v-33.313301h-0.004163z m-0.861659 33.300814c7.109724 0 14.427577-0.145691 21.508163-0.291383 62.701268-1.261268 116.852553-2.347707 134.243902 77.957204l-0.108227-0.561952c20.409236 112.94387 74.930992 181.87239 77.249561 184.752911l-0.299708-0.382959c169.301333 224.002081 81.39135 458.672911 15.285074 531.339447-56.782049 62.430699-129.511024 74.264976-243.866017 74.264975-116.199024 0-194.522537-12.150634-251.017365-74.264975-66.097951-72.666537-154.01626-307.341528 15.28091-531.34361l-0.299707 0.382959c2.310244-2.868033 56.836163-71.809041 77.245398-184.75291l-0.11239 0.561951c17.39135-80.304911 71.542634-79.210146 134.243902-77.957203 7.080585 0.145691 14.406764 0.291382 21.512326 0.291382v-33.300813h-0.861659v33.304976h-0.004163z" fill="#6E6E96" p-id="1500"></path><path d="M372.178211 531.672455c-15.480715 63.662829-34.711935 129.381984-68.591349 121.148358-33.879415-8.237789-48.794016-66.518374-33.313301-130.185366 15.480715-63.662829 55.495805-108.602276 89.379382-100.356162 33.879415 8.229463 28.005984 45.726179 12.525268 109.39317z" fill="#E8FFEF" p-id="1501"></path><path d="M615.220033 215.235642c0 16.092618 3.342569-56.074407-103.220033-10.689561-31.72735 13.50348-62.439024-13.053919-62.439024-29.138211 0-16.092618 28.567935-54.808976 63.050926-54.808976 90.965333-0.012488 102.60813 78.54413 102.608131 94.636748z" fill="#96E68F" p-id="1502"></path><path d="M530.315447 166.612293V19.339447a16.650407 16.650407 0 0 0-33.300813 0v147.268683a16.650407 16.650407 0 0 0 33.300813 0.004163z" fill="#6E6E96" p-id="1503"></path></svg>