<svg t="1644989561095" id="redlight" viewBox="0 0 1024 1024" version="1.1" xmlns="http://www.w3.org/2000/svg"
		p-id="5297" width="200" height="200">
		<path
			d="M601.01 954.23H432.22l-0.81 0.01c-18.56 0.43-33.48 15.61-33.48 34.27 0 18.93 15.35 34.28 34.28 34.28h169.6c18.56-0.43 33.48-15.61 33.48-34.27 0.01-18.94-15.34-34.29-34.28-34.29zM647.16 857.52H384.29l-0.81 0.01c-18.56 0.43-33.48 15.61-33.48 34.27 0 18.93 15.35 34.28 34.28 34.28h262.88l0.81-0.01c18.56-0.43 33.47-15.61 33.47-34.27 0.01-18.93-15.34-34.28-34.28-34.28zM515.73 5C297.97 5 121.45 181.49 121.45 399.19c0 136.78 69.68 257.29 175.48 327.98 0.56 0.38 2.74 9.84 6.55 28.4l3.16 15.62c6.41 32.04 34.55 55.11 67.24 55.11h283.16c31.8-0.48 59.16-22.79 65.95-53.95 2.87-13.14 5.17-23.77 6.91-31.89l2.53-11.9C839.41 658.06 910 536.87 910 399.19 910 181.49 733.48 5 515.73 5z m-59.15 220.9c-82.02 15.31-118.95 66.13-124.2 161.16-1.04 18.9-17.22 33.38-36.12 32.34-18.91-1.05-33.39-17.21-32.34-36.11 6.87-124.31 64.13-203.13 180.08-224.76 18.61-3.47 36.52 8.79 39.99 27.4 3.47 18.6-8.8 36.5-27.41 39.97z"
			fill="#FF3939" p-id="5298"></path>
	</svg>